<svg
  xmlns="http://www.w3.org/2000/svg"
  width="24"
  height="24"
  viewBox="0 0 24 24"
  fill="none"
  stroke="currentColor"
  stroke-width="2"
  stroke-linecap="round"
  stroke-linejoin="round"
>
  <!-- Light Mode Icon -->
  <circle cx="12" cy="12" r="5" />
  <line x1="12" y1="1" x2="12" y2="3" />
  <line x1="17.6" y1="6.4" x2="16.4" y2="7.6" />
  <line x1="21" y1="12" x2="19" y2="12" />
  <line x1="17.6" y1="17.6" x2="16.4" y2="16.4" />
  <line x1="12" y1="21" x2="12" y2="19" />
  <line x1="6.4" y1="17.6" x2="7.6" y2="16.4" />
  <line x1="3" y1="12" x2="5" y2="12" />
  <line x1="6.4" y1="6.4" x2="7.6" y2="7.6" />
  
  <!-- Dark Mode Icon -->
  <circle cx="12" cy="12" r="5" style="display:none;" />
  <line x1="12" y1="1" x2="12" y2="3" style="display:none;" />
  <line x1="17.6" y1="6.4" x2="16.4" y2="7.6" style="display:none;" />
  <line x1="21" y1="12" x2="19" y2="12" style="display:none;" />
  <line x1="17.6" y1="17.6" x2="16.4" y2="16.4" style="display:none;" />
  <line x1="12" y1="21" x2="12" y2="19" style="display:none;" />
  <line x1="6.4" y1="17.6" x2="7.6" y2="16.4" style="display:none;" />
  <line x1="3" y1="12" x2="5" y2="12" style="display:none;" />
  <line x1="6.4" y1="6.4" x2="7.6" y2="7.6" style="display:none;" />
</svg>
